<?xml version="1.0" encoding="utf-8"?>
<svg xmlns="http://www.w3.org/2000/svg" viewBox="0 0 569.705 716" version="1.1" id="svg2" xmlns:bx="https://boxy-svg.com">
  <g id="g3319" transform="matrix(0.981721, 0, 0, 0.989957, 11.614329, 78.854668)">
    <path id="path10" d="M 473.144 2.887 C 478.487 3.903 483.773 7.201 486.883 10.729 C 489.793 14.255 492.092 18.857 493.493 22.532 C 501.667 44.136 504.056 67.346 507.471 88.894 C 514.568 147.969 518.375 207.164 522.099 266.199 C 522.939 272.377 522.05 277.416 522.996 281.122 C 523.676 286.498 523.023 290.979 523.663 294.275 C 524.549 300.704 523.822 306.151 524.769 310.507 L 524.866 311.005 L 524.872 311.161 L 524.886 311.548 C 525.356 324.547 526.412 337.373 526.87 350.544 C 528.016 357.824 526.867 364.038 527.988 368.831 C 528.649 374.556 527.915 379.386 528.698 382.95 C 529.519 388.981 528.757 394.166 529.465 398.098 C 530.187 403.965 529.524 409.091 530.339 412.924 C 531.098 418.995 530.276 424.138 531.104 427.959 C 531.952 434.097 531.123 439.198 531.831 443.132 C 532.958 450.532 531.71 456.612 532.934 461.305 L 533.032 461.745 L 533.054 462.028 L 533.072 462.261 C 533.499 468.506 533.018 473.917 533.936 478.699 L 534.047 479.322 L 534.045 479.509 L 534.043 479.697 L 534.04 479.976 C 533.929 487.895 534.992 495.837 535.029 504.511 C 536.174 511.711 535.216 517.727 536.275 522.605 C 536.852 528.453 536.052 533.296 536.863 536.967 C 537.805 543.364 536.874 548.714 537.676 552.747 C 538.6 558.938 537.775 564.259 538.613 568.129 C 539.405 574.14 538.67 579.314 539.382 583.282 C 540.117 589.201 539.388 594.329 540.226 598.086 C 540.948 603.789 540.192 608.486 540.931 611.95 C 541.898 618.369 540.953 623.784 541.827 627.749 C 542.692 633.663 541.93 638.666 542.618 642.392 C 543.468 648.724 542.826 654.139 543.686 658.574 L 543.8 659.201 L 543.794 659.589 L 543.79 659.862 C 543.645 667.762 545.16 676.369 544.772 685.722 L 544.469 692.17 L 542.622 692.229 L 538.009 692.376 C 535.164 692.447 532.316 692.964 528.997 693.5 L 522.54 694.543 L 521.696 690.903 L 521.073 688.218 C 519.704 681.61 520.669 675.961 519.888 671.944 C 518.959 665.568 519.835 660.031 518.895 656.1 C 518.128 650.068 518.984 645.05 518.167 641.368 C 517.247 635.179 518.108 629.957 517.294 626.153 C 516.497 620.411 517.169 615.435 516.4 611.869 C 515.628 605.797 516.329 600.482 515.58 596.42 C 514.953 590.974 515.585 586.477 514.92 583.049 C 513.965 576.408 514.947 570.702 513.986 566.534 C 513.226 561.071 513.82 556.55 513.395 552.988 C 512.206 545.302 513.312 538.76 512.101 533.416 L 511.97 532.771 L 511.97 532.079 C 511.978 524.444 510.987 516.766 510.987 508.427 C 509.784 500.647 510.766 493.954 509.647 488.387 C 509.169 482.912 509.887 478.531 509.168 475.091 C 508.115 468.252 509.177 462.38 508.208 458.087 C 507.394 452.281 508.107 447.454 507.535 443.719 C 506.483 436.47 507.411 430.271 506.362 425.195 L 506.243 424.558 L 506.245 424.363 L 506.247 424.166 L 506.25 423.878 C 506.362 416.053 505.127 408.124 505.193 399.363 C 504.125 392.575 504.855 386.96 504.228 381.91 C 503.252 375.52 504.126 370.089 503.271 365.977 C 502.461 359.958 503.221 354.715 502.399 350.915 C 501.681 345.216 502.275 340.249 501.592 336.443 C 500.955 330.972 501.605 326.503 500.936 323.034 C 500.053 316.984 500.84 311.76 499.981 308.061 C 499.179 302.026 500.014 296.853 499.108 293.238 C 498.287 286.898 499.532 282.132 498.27 279.018 L 498.018 278.201 L 498.004 277.652 L 497.993 277.246 C 497.568 261.114 495.96 245.148 495.217 228.735 C 494.199 222.681 494.959 217.896 494.176 214.057 L 494.135 213.844 L 494.118 213.608 C 491.559 177.9 488.805 142.337 484.849 106.859 C 481.906 83.186 479.255 60.06 472.806 37.701 C 471.925 35.17 471.36 33.494 470.859 32.193 C 468.911 39.814 468.565 48.322 467.764 56.986 L 467.753 57.108 L 467.733 57.199 C 466.906 60.956 467.712 66.073 466.845 72.133 C 466.016 75.945 466.857 81.204 466.013 87.342 C 465.134 91.131 466.031 96.323 465.224 102.496 C 464.824 104.631 464.77 106.474 464.927 108.781 L 465.167 112.451 L 451.992 114.417 L 451.563 112.638 L 451.133 110.856 C 448.366 99.341 445.611 87.938 442.525 76.606 L 442.119 75.111 L 442.194 74.676 L 442.269 74.237 L 442.378 73.606 C 443.129 69.836 442.398 64.593 443.154 58.681 C 443.899 55.55 443.305 51.417 444.013 46.213 C 444.94 37.41 446.023 26.471 450.638 16.996 C 454.514 10.791 462.832 3.689 471.965 2.814 L 472.528 2.787 L 472.734 2.82 L 472.946 2.855 Z" style="fill: rgb(31, 26, 23); stroke-dashoffset: -100px; stroke: rgb(255, 255, 255); fill-rule: nonzero; stroke-width: 6px;"/>
    <path id="path12" d="M 413.861 39.472 C 419.138 38.13 425.291 38.647 430.107 40.572 C 434.871 42.579 439.511 46.332 442.55 50.354 C 447.782 57.213 451.56 65.646 454.118 73.504 C 457.24 84.989 460.083 96.769 462.85 108.28 C 467.612 132.186 470.392 156.445 472.775 180.512 C 475.992 212.593 478.052 244.821 479.843 276.92 C 480.673 293.185 481.706 309.275 481.973 325.571 L 481.975 325.692 L 481.991 325.805 C 483.257 334.913 482.001 343.408 483.221 351.092 C 484.018 359.577 482.866 367.414 483.873 374.585 C 484.984 383.957 483.765 392.79 484.591 400.923 C 485.865 411.672 484.705 422 485.328 431.728 C 486.839 446.85 484.886 461.964 486.641 475.856 C 487.255 492.459 485.889 508.636 487.573 524.449 L 487.6 524.705 L 487.6 524.966 C 487.62 541.956 487.633 559.24 487.563 576.228 C 487.29 581.275 488.549 586.736 488.5 593.041 C 488.4 616.699 488.503 640.627 488.433 664.3 C 488.059 671.93 489.833 680.168 489.278 689.165 L 488.968 693.81 C 481.744 693.81 470.54 693.81 463.66 693.81 L 458.66 693.81 L 458.66 688.81 C 458.66 670.554 458.631 652.188 458.691 633.924 C 458.803 629.749 457.853 625.149 457.8 619.966 C 457.85 598.63 457.824 577.333 457.814 556.075 C 456.298 537.16 457.585 518.532 456.973 500.219 C 455.156 483.424 457.394 466.74 455.542 451.134 C 455.043 440.49 455.84 430.229 455.185 420.319 C 453.752 409.105 455.426 398.398 454.066 388.569 C 453.146 379.534 454.398 371.14 453.365 363.415 C 452.34 355.28 453.454 347.649 452.499 340.95 C 451.747 333.888 452.645 327.424 451.731 321.749 C 450.896 315.027 451.795 308.946 450.985 303.657 C 450.101 296.919 450.901 290.833 449.998 285.493 L 449.961 285.254 L 449.966 285.362 L 449.96 285.244 L 449.945 284.966 C 448.469 254.54 446.374 224.156 443.719 193.782 L 443.693 193.495 L 443.697 193.378 L 443.702 193.233 C 443.885 187.217 442.819 181.08 442.205 174.474 C 441.217 165.832 440.488 157.29 438.973 149.048 C 435.951 129.305 433.161 109.82 427.875 90.913 C 425.446 82.984 423.921 77.666 420.995 72.545 L 419.342 69.653 L 417.576 72.475 C 417.113 73.214 416.609 74.235 415.424 76.049 C 405.852 90.355 401.276 107.287 395.526 124.24 C 388.608 147.686 382.296 171.233 376.797 195.064 C 364.521 245.9 353.348 297.069 340.651 347.943 L 339.878 351.037 L 339.878 351.037 L 336.752 351.639 C 329.412 353.033 320.993 352.986 313.512 350.69 L 309.035 349.285 L 310.192 344.705 C 325.41 284.453 338.238 223.53 353.48 163.083 C 359.002 141.081 364.979 118.975 372.356 97.389 C 376.694 84.877 382.186 72.026 389.219 60.538 C 394.717 52.402 402.747 42.906 413.861 39.472 Z" style="fill: rgb(231, 120, 68); stroke: rgb(255, 255, 255); stroke-width: 6px;"/>
    <path id="path60" d="M 85.231 293.709 C 90.01 288.214 98.39 283.643 106.479 283.791 C 115.119 284.687 122.932 290.91 127.238 297.113 C 136.239 310.98 141.405 326.91 146.344 341.827 C 150.149 354.168 154.036 366.568 157.468 379.126 C 162.36 396.299 167.67 413.462 172.471 430.801 C 174.363 437.857 176.573 444.901 179.359 451.49 C 186.597 471.174 193.6 490.588 204.406 508.051 C 209.903 516.546 214.715 524.522 223.434 527.395 C 226.793 528.426 229.793 527.696 232.651 526.111 C 235.54 524.454 238.429 521.865 241.357 519.212 C 249.898 510.568 255.919 500.111 261.929 489.043 C 277.625 457.384 288.397 423.67 298.062 389.425 C 301.429 377.847 304.583 366.254 307.52 354.562 L 308.559 350.43 L 312.801 350.798 C 330.482 352.34 331.946 352.299 332.822 352.29 L 339.2 352.217 L 337.749 358.427 C 335.633 367.477 333.136 376.481 330.784 385.331 C 320.289 423.051 308.715 461.197 291.858 496.986 C 284.423 511.925 275.614 527.198 263.803 539.757 C 253.79 549.955 238.843 557.84 223.723 557.831 C 210.607 556.925 198.501 548.562 190.35 539.92 C 179.439 526.984 170.533 511.467 164.211 495.902 C 161.971 489.109 159.029 482.287 156.072 475.558 C 138.864 430.448 128.677 383.396 113.227 338.434 C 110.827 332.149 109.129 327.212 106.971 322.656 L 105.065 318.631 L 103.325 322.731 C 98.819 333.343 95.595 344.471 92.411 355.825 C 87.285 375.399 83.037 395.122 79.076 415.038 C 69.084 466.668 61.084 518.623 53.427 570.721 C 47.919 609.247 42.446 647.721 37.642 686.308 L 37.495 687.49 L 37.227 687.888 L 36.834 688.472 C 36.22 689.386 35.692 690.248 35.142 691.234 L 33.717 693.782 L 30.795 693.79 C 24.391 693.81 17.98 693.82 11.562 693.81 L 5.841 693.802 L 6.616 688.133 C 19.415 594.425 31.844 500.358 49.706 407.296 C 56.191 375.835 62.761 343.488 74.376 312.989 C 77.164 306.541 80.775 299.573 85.231 293.709 Z" style="fill: rgb(231, 120, 68); stroke: rgb(255, 255, 255); stroke-width: 6px;"/>
    <path id="path16" d="M 434.205 122.932 C 447.245 201.742 446.557 222.518 447.205 237.602 C 448.683 271.997 421.597 304.554 397.719 330.854 C 394.23 335.221 390.279 338.773 386.38 341.981 C 381.129 346.976 374.716 351.222 368.911 354.744 C 357.869 360.442 344.509 363.075 332.942 364.29 C 322.74 364.351 316.518 363.442 311.111 362.665 C 293.094 359.278 276.77 351.265 261.019 345.084 C 251.079 341.514 242.305 337.591 233.312 338.573 L 232.991 338.603 L 232.82 338.59 L 232.685 338.579 C 226.79 337.901 222.306 340.875 217.303 345.469 C 210.792 352.108 206.578 359.705 202.771 368.587 C 182.608 456.076 180.603 455.019 180.603 455.019 C 171.95 428.469 179.648 455.819 168.037 414.994 C 176.497 372.132 175.268 366.683 186.481 345.941 C 193.625 333.811 205.043 320.512 220.517 315.832 C 238.116 311.203 256.476 316.975 271.095 322.561 C 286.528 328.804 301.571 335.579 317.069 339.236 L 317.176 339.261 L 317.264 339.293 C 322.814 341.292 328.642 341.074 334.875 339.792 C 341.029 338.972 346.658 338.02 351.942 335.923 C 358.238 333.717 363.436 329.945 368.874 325.221 C 378.593 316.741 387.309 307.29 393.457 296.365 C 405.237 278.996 412.78 259.949 419.62 239.882 C 419.68 239.407 419.733 239.007 419.786 238.548 L 419.877 237.76 L 419.952 237.546 L 420.03 237.326 L 420.143 237.01 C 423.322 228.121 425.208 218.75 427.478 209.013 C 435.869 172.069 437.834 159.804 438.111 155.773 L 434.205 122.932 Z" style="fill: rgb(31, 26, 23); stroke-dashoffset: -100px; stroke: rgb(255, 255, 255); fill-rule: nonzero; stroke-width: 6px;"/>
    <path id="path114" d="M 172.178 512.481 C 165.838 575.632 162.78 617.773 156.342 679.101 L 155.604 686.108 L 153.604 685.885 L 148.607 685.328 C 144.941 684.914 141.709 684.329 138.648 684.156 L 131.492 683.722 L 132.105 676.572 C 133.648 658.626 135.775 640.783 137.68 623.043 C 145.679 548.968 149.698 511.046 151.111 491.587 C 152.618 470.831 153.081 467.546 153.081 467.546 C 168.982 505.226 172.178 512.481 172.178 512.481 Z M 152.618 470.831 Z" style="fill: rgb(31, 26, 23); stroke-dashoffset: -100px; stroke: rgb(255, 255, 255); fill-rule: nonzero; stroke-width: 6px;"/>
  </g>
</svg>