<?xml version="1.0" encoding="utf-8"?>
<svg xmlns="http://www.w3.org/2000/svg" width="1396pt" height="716pt" viewBox="0 0 569.705 716" version="1.1" id="svg2">
  <g id="g3319" transform="matrix(0.981721, 0, 0, 0.989957, 11.614329, 127.854675)">
    <path id="path10" d="m 456.62,20.63 c 3.29,-5.48 8.67,-10.9 15.5,-10.82 7.87,0.96 12.29,8.46 14.83,15.21 7.96,20.7 10.13,42.96 13.57,64.71 7.08,58.88 10.88,118.06 14.61,177.18 0.85,5.03 -0.03,10.19 0.94,15.22 0.68,4.36 0.02,8.81 0.67,13.18 0.88,5.46 0.17,11.03 1.15,16.49 0.48,13.16 1.56,26.28 2,39.44 1.23,6.11 0.03,12.39 1.16,18.51 0.67,4.73 -0.07,9.54 0.73,14.27 0.82,4.97 0.04,10.04 0.75,15.03 0.72,4.92 0.04,9.94 0.88,14.87 0.77,5.01 -0.06,10.12 0.78,15.13 0.85,5.03 0.01,10.15 0.73,15.19 1.14,6.12 -0.07,12.41 1.17,18.53 0.43,5.71 -0.01,11.46 0.95,17.13 -0.08,8.42 1.03,16.76 0.99,25.18 1.13,6.06 0.21,12.26 1.29,18.32 0.6,4.89 -0.19,9.85 0.64,14.72 0.95,5.21 0,10.54 0.81,15.77 0.92,5.04 0.07,10.21 0.92,15.27 0.79,4.99 0.04,10.08 0.76,15.09 0.74,4.92 -0.01,9.93 0.85,14.85 0.73,4.64 -0.03,9.38 0.73,14.02 0.98,5.21 0.01,10.55 0.89,15.77 0.86,4.79 0.08,9.69 0.77,14.5 0.84,5.43 0.21,10.95 1.1,16.38 -0.09,8.56 1.43,17.04 0.99,25.61 -3.33,0.12 -6.62,0.68 -9.9,1.21 -1.33,-5.16 -0.3,-10.53 -1.08,-15.75 -0.93,-5.22 -0.02,-10.56 -0.98,-15.76 -0.78,-4.93 0.08,-9.96 -0.75,-14.87 -0.92,-5.01 -0.04,-10.13 -0.86,-15.14 -0.79,-4.7 -0.09,-9.5 -0.88,-14.19 -0.77,-5.1 -0.05,-10.28 -0.81,-15.37 -0.63,-4.51 0,-9.09 -0.69,-13.58 -0.97,-5.46 0.04,-11.04 -0.93,-16.49 -0.75,-4.44 -0.11,-8.96 -0.57,-13.42 -1.25,-6.6 -0.13,-13.35 -1.36,-19.95 -0.02,-8.08 -1.06,-16.1 -0.98,-24.18 -1.19,-6.7 -0.24,-13.53 -1.38,-20.21 -0.5,-4.59 0.18,-9.24 -0.55,-13.81 -1.06,-5.58 0.03,-11.3 -0.94,-16.89 -0.81,-4.73 -0.07,-9.54 -0.66,-14.28 -1.06,-6.21 -0.14,-12.54 -1.21,-18.75 0.07,-8.4 -1.23,-16.72 -1.05,-25.13 -1.17,-5.91 -0.38,-11.94 -1.04,-17.89 -1.04,-5.29 -0.11,-10.71 -0.97,-16.01 -0.81,-4.96 -0.02,-10.02 -0.86,-14.98 -0.71,-4.78 -0.1,-9.64 -0.8,-14.42 -0.64,-4.52 -0.01,-9.12 -0.69,-13.64 -0.88,-4.92 -0.06,-9.96 -0.94,-14.88 -0.81,-4.92 0.05,-9.95 -0.88,-14.86 -0.87,-4.99 0.29,-10.15 -1.03,-15.08 -0.44,-16.39 -2.08,-32.71 -2.8,-49.08 -0.99,-4.91 -0.29,-9.94 -1.09,-14.87 -2.56,-35.73 -5.33,-71.46 -9.3,-107.07 -2.94,-23.66 -5.72,-47.48 -12.32,-70.46 -1.93,-5.54 -4.05,-11.31 -8.32,-15.52 -3.2,2.81 -6.12,6.11 -7.08,10.39 -2.06,8.33 -2.44,16.97 -3.23,25.48 -0.84,4.95 -0.02,10 -0.89,14.94 -0.84,5.02 0.03,10.14 -0.82,15.15 -0.89,5.05 0.01,10.21 -0.81,15.26 -0.45,2.62 -0.55,5.29 -0.39,7.94 -2.77,-11.52 -5.55,-23.02 -8.66,-34.45 0.76,-4.88 -0.02,-9.85 0.74,-14.73 0.78,-4.28 0.19,-8.68 0.94,-12.96 0.94,-8.94 1.42,-18.33 5.66,-26.45 z" style="fill:#1f1a17"/>
    <path id="path12" d="m 393.34,63.37 c 5.4,-8.01 11.95,-16.54 21.78,-19.06 8.74,-2.6 18.29,1.92 23.45,9.07 4.93,6.35 8.25,13.77 10.71,21.39 3.11,11.43 5.89,22.93 8.66,34.45 4.73,23.7 7.48,47.76 9.86,71.79 3.21,31.99 5.26,64.08 7.05,96.16 0.83,16.3 1.88,32.59 2.13,48.91 1.32,8.44 0.02,17.01 1.26,25.45 0.81,7.87 -0.34,15.8 0.67,23.66 1.12,8.72 -0.12,17.53 0.71,26.27 1.28,10.17 0.09,20.44 0.72,30.65 1.55,14.57 -0.47,29.29 1.3,43.85 0.63,16.33 -0.73,32.73 0.96,49.01 0.02,16.99 0.04,33.99 -0.03,50.98 -0.23,5.72 1.04,11.36 0.93,17.07 -0.1,23.68 0.01,47.35 -0.06,71.02 -0.33,8.28 1.46,16.48 0.85,24.77 -6.88,0 -13.75,0 -20.63,0 0,-18.26 -0.03,-36.52 0.03,-54.78 0.06,-4.71 -0.89,-9.35 -0.89,-14.04 0.05,-21.35 0.03,-42.69 0.02,-64.04 -1.55,-18.63 -0.22,-37.36 -0.85,-56.02 -1.88,-16.26 0.43,-32.71 -1.43,-48.97 -0.51,-10.35 0.31,-20.74 -0.37,-31.08 -1.5,-10.56 0.23,-21.26 -1.13,-31.82 -0.94,-8.41 0.31,-16.91 -0.72,-25.31 -1.03,-7.42 0.11,-14.93 -0.85,-22.34 -0.76,-6.42 0.15,-12.9 -0.78,-19.3 -0.84,-6.01 0.07,-12.11 -0.75,-18.12 -0.88,-6.06 -0.08,-12.21 -1,-18.26 -1.48,-30.48 -3.58,-60.96 -6.24,-91.38 0.15,-6.49 -0.93,-12.92 -1.52,-19.37 -0.98,-8.57 -1.71,-17.17 -3.26,-25.66 -3.02,-19.72 -5.87,-39.54 -11.24,-58.79 -2.77,-9.04 -5.63,-18.37 -11.76,-25.79 -4.21,2.03 -7.15,5.72 -9.66,9.54 -9.9,15.02 -14.76,32.55 -20.49,49.41 -6.95,23.55 -13.31,47.27 -18.83,71.19 -12.29,50.89 -23.46,102.05 -36.14,152.85 -6.87,1.35 -14.05,1.38 -20.76,-0.8 15.24,-60.35 28.07,-121.28 43.29,-181.63 5.51,-21.96 11.42,-43.84 18.75,-65.27 4.28,-12.36 9.39,-24.5 16.26,-35.66 z" style="fill:#e77844"/>
    <path id="path60" d="M 89.02 296.97 C 93.16 291.99 99.41 288.19 106.08 288.77 C 113.28 289 119.19 294.12 123.04 299.83 C 131.76 313.09 136.61 328.33 141.56 343.28 C 145.37 355.64 149.24 367.98 152.65 380.46 C 157.56 397.7 162.86 414.82 167.64 432.09 C 169.56 439.24 171.77 446.34 174.65 453.17 C 181.89 472.86 189.12 492.77 200.17 510.71 C 205.73 519.3 212.14 528.48 222.11 532.22 C 230.8 534.06 238.69 528.37 244.78 522.86 C 253.75 513.71 260.28 502.56 266.35 491.38 C 282.22 459.34 293.17 425.16 302.86 390.83 C 306.24 379.21 309.42 367.52 312.37 355.78 C 330.31 357.33 332.02 357.3 332.88 357.29 C 330.79 366.24 328.33 375.1 325.97 383.98 C 315.49 421.65 304.12 459.29 287.39 494.74 C 280.02 509.56 271.69 524.18 260.23 536.26 C 250.8 546.02 237.88 553.19 224 552.84 C 212.21 552.43 201.98 545.06 194.2 536.73 C 183.53 524.15 175.15 509.67 168.98 494.4 C 166.66 487.38 163.73 480.58 160.76 473.82 C 143.65 429.06 133.49 382.04 117.94 336.76 C 114.39 327.48 111.16 317.83 105.01 309.88 C 103.09 312.46 101.22 315.11 99.91 318.06 C 94.67 329.79 91.05 342.16 87.59 354.5 C 82.43 374.2 78.14 394.11 74.17 414.07 C 64.16 465.8 56.14 517.88 48.48 570 C 42.97 608.53 37.49 647.06 32.68 685.69 C 32.01 686.69 31.38 687.72 30.78 688.79 C 24.38 688.81 17.98 688.82 11.57 688.81 C 24.37 595.09 36.76 501.24 54.6 408.32 C 61.09 376.84 67.44 345.12 78.95 315.01 C 81.68 308.68 84.8 302.44 89.02 296.97 Z" style="fill:#e77844"/>
    <path id="path16" d="M 443.92 148.32 C 445.47 156.81 446.2 165.41 447.18 173.98 C 447.77 180.43 448.85 186.86 448.7 193.35 C 445.66 207.55 443.2 221.9 438.98 235.82 C 429.76 268.61 415.72 301 392.39 326.31 C 389.31 330.24 385.58 333.59 381.73 336.74 C 376.95 341.4 371.34 345.1 365.65 348.55 C 355.57 353.91 344.14 356.12 332.88 357.29 C 323.23 357.39 317.8 356.56 312.37 355.78 C 295.28 352.7 279.54 344.84 263.48 338.53 C 253.68 335.02 243.67 330.87 233.04 331.59 C 225.21 331.38 218.08 335.33 212.43 340.44 C 205.34 347.81 200.21 356.79 196.2 366.15 C 184.81 393.92 179.32 423.66 174.65 453.17 C 171.77 446.34 169.56 439.24 167.64 432.09 C 168.21 425.98 169.79 420.02 170.91 414 C 175.88 391.86 181.59 369.53 192.52 349.48 C 199.35 337.8 208.76 326.08 222.45 322.56 C 237.96 317.88 253.98 323.51 268.47 329.05 C 283.78 335.24 298.92 342.06 315.04 345.93 C 321.75 348.11 328.93 348.08 335.8 346.73 C 342.09 345.89 348.39 344.78 354.34 342.5 C 361.46 339.86 367.76 335.44 373.47 330.5 C 383.46 321.76 392.64 311.85 399.26 300.28 C 411.39 282.25 419.52 261.93 426.48 241.45 C 426.54 240.92 426.68 239.87 426.74 239.35 C 430.05 229.99 432.05 220.23 434.3 210.58 C 438.92 190.08 442.04 169.22 443.92 148.32 Z" style="fill:#1f1a17"/>
    <path id="path114" d="m 160.76,473.82 c 2.97,6.76 5.9,13.56 8.22,20.58 -6.16,61.35 -13.16,122.63 -19.6,183.97 -3.44,-0.38 -6.84,-0.98 -10.3,-1.2 1.53,-17.83 3.65,-35.6 5.56,-53.38 5.3,-50 10.79,-99.99 16.12,-149.97 z" style="fill:#1f1a17"/>
  </g>
</svg>